<?xml version="1.0" standalone="no"?>
<!DOCTYPE svg PUBLIC "-//W3C//DTD SVG 20010904//EN"
 "http://www.w3.org/TR/2001/REC-SVG-20010904/DTD/svg10.dtd">
<svg version="1.0" xmlns="http://www.w3.org/2000/svg"
 width="300.000000pt" height="300.000000pt" viewBox="0 0 300.000000 300.000000"
 preserveAspectRatio="xMidYMid meet">
<metadata>
Created by potrace 1.10, written by Peter Selinger 2001-2011
</metadata>
<g transform="translate(0.000000,300.000000) scale(0.100000,-0.100000)"
fill="#00297a" stroke="none">
<path d="M860 2673 c-124 -106 -243 -328 -279 -519 -14 -78 -14 -260 0 -321
54 -227 131 -367 278 -510 36 -35 85 -76 108 -91 24 -15 43 -30 43 -34 0 -5
-86 -8 -191 -8 -218 0 -241 -6 -290 -73 -58 -80 -58 -99 -5 -259 26 -79 51
-152 56 -163 4 -11 11 -29 13 -40 12 -46 60 -171 75 -194 22 -34 39 -48 87
-71 36 -18 64 -20 275 -20 233 0 236 0 237 -21 1 -12 10 -30 19 -40 16 -17 34
-19 214 -19 213 0 217 1 234 58 7 22 8 22 239 22 204 0 237 3 273 19 60 27 96
79 133 189 18 53 36 106 41 117 20 45 100 296 100 312 0 37 -49 121 -86 149
l-37 29 -204 3 c-112 2 -203 7 -203 10 0 4 19 19 43 34 137 87 292 293 351
468 60 179 61 410 2 585 -43 125 -121 256 -210 353 -70 76 -28 72 -684 72
l-588 0 -44 -37z m1302 -62 c125 -136 210 -321 239 -522 35 -252 -82 -567
-281 -753 -55 -52 -197 -146 -220 -146 -8 0 -24 -7 -35 -16 -18 -14 6 -15 248
-13 l268 2 37 -30 c41 -33 71 -84 72 -122 0 -29 -154 -493 -177 -531 -8 -14
-30 -36 -48 -49 -32 -22 -38 -22 -300 -21 l-267 1 4 -43 3 -43 -205 0 -205 0
3 43 4 43 -267 -1 c-262 -1 -268 -1 -300 21 -18 13 -40 35 -48 49 -23 38 -177
502 -177 531 1 37 31 89 71 121 l36 29 262 0 c227 0 261 2 250 15 -6 8 -19 14
-28 14 -9 0 -51 22 -94 50 -219 140 -355 353 -401 628 -19 110 -20 139 -5 234
33 211 114 380 251 523 l47 50 600 2 600 2 63 -68z"/>
<path d="M916 2519 c-191 -211 -248 -527 -146 -808 75 -204 258 -378 482 -459
68 -24 85 -26 243 -27 153 0 177 2 243 24 85 28 210 98 278 156 79 67 173 202
215 310 61 158 65 409 9 540 -41 94 -57 127 -86 172 -18 28 -50 70 -70 92
l-36 41 -548 0 -548 0 -36 -41z m1139 -9 c85 -70 185 -292 189 -417 0 -23 4
-45 9 -49 12 -12 8 -46 -5 -38 -7 5 -8 3 -2 -7 12 -19 13 -69 1 -69 -5 0 -7
-10 -4 -21 9 -32 -38 -200 -74 -266 -44 -82 -73 -119 -148 -192 -58 -55 -200
-151 -224 -151 -5 0 -23 -7 -40 -15 -44 -19 -187 -45 -256 -45 -66 0 -198 24
-261 47 -124 46 -232 122 -320 226 -236 278 -229 717 16 987 l23 25 539 0
c464 0 541 -2 557 -15z"/>
<path d="M1250 2373 c-30 -11 -71 -58 -80 -93 -18 -65 18 -141 79 -166 97 -41
200 38 188 144 -4 39 -12 53 -47 85 -35 30 -50 37 -84 36 -22 0 -48 -3 -56 -6z
m95 -29 c117 -55 69 -225 -59 -210 -108 13 -130 162 -32 210 39 20 50 20 91 0z"/>
<path d="M1254 2274 c-13 -19 -15 -32 -8 -52 22 -62 114 -46 114 20 0 58 -75
81 -106 32z m71 -34 c0 -18 -6 -26 -23 -28 -24 -4 -38 18 -28 44 3 9 15 14 28
12 17 -2 23 -10 23 -28z"/>
<path d="M1630 2364 c-93 -60 -87 -199 12 -248 137 -69 260 121 148 229 -37
35 -120 46 -160 19z m149 -50 c30 -33 33 -41 28 -81 -7 -66 -42 -98 -107 -98
-42 0 -54 5 -80 31 -55 54 -39 142 33 178 45 23 86 13 126 -30z"/>
<path d="M1658 2286 c-11 -8 -18 -26 -18 -44 0 -66 92 -82 114 -20 20 57 -47
101 -96 64z m67 -46 c0 -18 -6 -26 -23 -28 -24 -4 -38 18 -28 44 3 9 15 14 28
12 17 -2 23 -10 23 -28z"/>
<path d="M1025 2125 c-153 -75 -137 -296 26 -348 60 -20 111 -10 167 30 107
79 91 254 -30 317 -62 32 -99 32 -163 1z m139 -19 c44 -18 80 -59 96 -107 18
-52 -1 -116 -46 -160 -29 -28 -43 -33 -93 -37 -111 -8 -176 48 -176 153 0 73
24 113 87 144 50 24 86 26 132 7z"/>
<path d="M1053 2031 c-69 -57 -37 -161 48 -161 54 0 89 34 89 88 0 35 -5 45
-33 66 -40 31 -73 33 -104 7z m99 -35 c11 -16 10 -54 -2 -77 -11 -19 -63 -27
-86 -11 -33 21 -27 88 9 102 25 10 69 2 79 -14z"/>
<path d="M1426 2130 c-56 -29 -83 -57 -102 -106 -36 -94 7 -194 102 -239 63
-30 74 -30 134 -8 82 31 135 113 128 195 -13 127 -155 213 -262 158z m171 -46
c18 -14 40 -38 48 -54 20 -38 19 -109 -1 -149 -54 -109 -234 -109 -288 0 -20
40 -21 111 -1 149 16 32 68 75 100 83 40 11 108 -3 142 -29z"/>
<path d="M1448 2029 c-47 -35 -46 -110 1 -146 9 -7 32 -13 53 -13 29 0 42 7
63 32 34 41 29 92 -12 125 -34 28 -70 29 -105 2z m100 -32 c20 -15 15 -75 -7
-87 -50 -26 -101 -1 -101 49 0 52 62 74 108 38z"/>
<path d="M1825 2133 c-127 -65 -156 -208 -62 -310 28 -31 121 -65 155 -57 50
12 101 44 129 80 39 52 45 147 12 201 -28 46 -42 58 -94 83 -47 23 -98 24
-140 3z m140 -33 c84 -40 116 -131 76 -212 -33 -66 -63 -83 -148 -83 -68 0
-74 2 -106 33 -84 82 -66 211 36 261 53 26 89 26 142 1z"/>
<path d="M1841 2024 c-65 -54 -28 -154 58 -154 82 0 116 95 53 151 -40 36 -71
37 -111 3z m110 -41 c13 -36 1 -72 -27 -79 -59 -15 -100 25 -82 78 15 43 92
44 109 1z"/>
<path d="M1203 1771 c-58 -42 -84 -83 -90 -144 -6 -66 25 -129 86 -172 72 -51
185 -39 239 25 85 101 60 241 -54 302 -55 29 -132 24 -181 -11z m195 -28 c36
-27 71 -92 72 -131 0 -28 -24 -78 -54 -110 -97 -107 -276 -36 -276 110 0 135
152 213 258 131z"/>
<path d="M1243 1676 c-23 -20 -28 -32 -27 -66 2 -56 30 -85 85 -85 33 0 46 6
65 28 74 86 -37 197 -123 123z m109 -31 c27 -60 -33 -116 -86 -81 -51 33 -23
106 41 106 26 0 36 -6 45 -25z"/>
<path d="M1613 1783 c-63 -36 -103 -101 -103 -170 0 -58 29 -114 82 -156 79
-64 199 -40 263 51 26 38 30 52 29 108 0 56 -4 69 -31 101 -49 62 -88 83 -152
83 -35 0 -68 -7 -88 -17z m159 -26 c84 -43 115 -154 65 -228 -65 -97 -180
-107 -258 -22 -42 45 -55 93 -40 145 14 47 76 114 113 121 33 7 91 -1 120 -16z"/>
<path d="M1635 1675 c-56 -57 -17 -150 64 -150 41 0 65 18 81 60 32 85 -80
154 -145 90z m107 -22 c24 -21 23 -58 -2 -83 -52 -52 -125 14 -90 81 13 24 66
26 92 2z"/>
<path d="M645 1031 c-17 -19 -14 -29 61 -252 44 -128 85 -238 92 -246 11 -11
143 -13 700 -13 378 0 693 4 700 8 7 5 49 115 93 246 79 229 81 237 64 256
-18 20 -37 20 -855 20 -817 0 -837 0 -855 -19z m1693 -26 c3 -3 0 -15 -6 -28
-5 -12 -22 -58 -36 -102 -46 -148 -99 -300 -109 -312 -14 -19 -1360 -19 -1375
0 -5 6 -15 28 -20 47 -6 19 -38 116 -72 214 -37 106 -58 181 -52 185 12 7
1663 3 1670 -4z"/>
<path d="M868 889 c-15 -8 -18 -25 -18 -103 0 -68 4 -97 14 -105 20 -17 603
-16 623 1 10 8 17 8 25 0 9 -9 99 -12 314 -12 249 0 304 2 313 14 8 9 12 49
12 103 0 71 -4 90 -18 100 -13 10 -90 13 -309 13 -253 0 -295 -2 -308 -16 -15
-14 -17 -14 -32 0 -13 14 -55 16 -307 16 -180 0 -299 -5 -309 -11z m602 -101
l0 -88 -290 0 c-159 0 -293 -1 -297 -2 -8 -3 -17 148 -10 166 3 8 96 11 301
11 l296 0 0 -87z m655 -3 l0 -86 -298 -2 -297 -2 0 90 0 90 297 -2 298 -3 0
-85z"/>
<path d="M940 780 c0 -20 5 -21 235 -19 223 1 235 2 235 20 0 18 -11 19 -235
19 -230 0 -235 0 -235 -20z"/>
<path d="M1590 780 c0 -21 4 -21 235 -19 220 2 235 4 235 21 0 17 -14 18 -235
18 -230 0 -235 0 -235 -20z"/>
</g>
</svg>
